HIERARCHY
ROOT Hips
{
	OFFSET 0.000000 97.167313 0.000000
	CHANNELS 6 Xposition Yposition Zposition Xrotation Yrotation Zrotation
	JOINT Spine
	{
		OFFSET 0.000000 13.784798 0.064400
		CHANNELS 3 Xrotation Yrotation Zrotation
		JOINT Spine1
		{
			OFFSET 0.000000 12.037903 0.404700
			CHANNELS 3 Xrotation Yrotation Zrotation
			JOINT Spine2
			{
				OFFSET 0.000000 17.795601 0.420200
				CHANNELS 3 Xrotation Yrotation Zrotation
				JOINT Neck
				{
					OFFSET 0.000000 39.131302 11.954600
					CHANNELS 3 Xrotation Yrotation Zrotation
					JOINT Head
					{
						OFFSET 0.000000 14.456192 15.627699
						CHANNELS 3 Xrotation Yrotation Zrotation
						JOINT HeadTop_End
						{
							OFFSET 0.000000 15.703506 7.603401
							CHANNELS 3 Xrotation Yrotation Zrotation
							End Site
							{
								OFFSET 0.000000 17.447403 0.000000
							}
						}
					}
				}
				JOINT LeftShoulder
				{
					OFFSET 17.399500 24.608795 1.168800
					CHANNELS 3 Xrotation Yrotation Zrotation
					JOINT LeftArm
					{
						OFFSET 18.980635 5.765305 1.818600
						CHANNELS 3 Xrotation Yrotation Zrotation
						JOINT LeftForeArm
						{
							OFFSET 49.290169 0.000000 0.000000
							CHANNELS 3 Xrotation Yrotation Zrotation
							JOINT LeftHand
							{
								OFFSET 31.562012 0.000000 0.000000
								CHANNELS 3 Xrotation Yrotation Zrotation
								JOINT LeftHandThumb1
								{
									OFFSET 6.133995 -4.388519 7.076070
									CHANNELS 3 Xrotation Yrotation Zrotation
									JOINT LeftHandThumb2
									{
										OFFSET 6.037666 -3.485840 3.485847
										CHANNELS 3 Xrotation Yrotation Zrotation
										JOINT LeftHandThumb3
										{
											OFFSET 6.496506 -3.750763 3.750761
											CHANNELS 3 Xrotation Yrotation Zrotation
											JOINT LeftHandThumb4
											{
												OFFSET 5.616882 -3.242905 3.242910
												CHANNELS 3 Xrotation Yrotation Zrotation
												End Site
												{
													OFFSET -1.254608 7.132141 0.375429
												}
											}
										}
									}
								}
								JOINT LeftHandPinky1
								{
									OFFSET 18.920792 -0.453171 -11.426712
									CHANNELS 3 Xrotation Yrotation Zrotation
									JOINT LeftHandPinky2
									{
										OFFSET 4.919586 0.000000 0.000000
										CHANNELS 3 Xrotation Yrotation Zrotation
										JOINT LeftHandPinky3
										{
											OFFSET 5.233047 0.000000 0.000000
											CHANNELS 3 Xrotation Yrotation Zrotation
											JOINT LeftHandPinky4
											{
												OFFSET 5.571716 0.000000 0.000000
												CHANNELS 3 Xrotation Yrotation Zrotation
												End Site
												{
													OFFSET -3.459808 4.342407 -0.466164
												}
											}
										}
									}
								}
								JOINT LeftHandRing1
								{
									OFFSET 22.726120 -0.094986 -6.500475
									CHANNELS 3 Xrotation Yrotation Zrotation
									JOINT LeftHandRing2
									{
										OFFSET 6.408615 0.000000 0.000000
										CHANNELS 3 Xrotation Yrotation Zrotation
										JOINT LeftHandRing3
										{
											OFFSET 6.150223 0.000000 0.000000
											CHANNELS 3 Xrotation Yrotation Zrotation
											JOINT LeftHandRing4
											{
												OFFSET 6.145386 0.000000 0.000000
												CHANNELS 3 Xrotation Yrotation Zrotation
												End Site
												{
													OFFSET -3.671402 4.923981 -0.202372
												}
											}
										}
									}
								}
								JOINT LeftHandMiddle1
								{
									OFFSET 23.373947 0.000000 0.000001
									CHANNELS 3 Xrotation Yrotation Zrotation
									JOINT LeftHandMiddle2
									{
										OFFSET 6.996567 0.000000 0.000000
										CHANNELS 3 Xrotation Yrotation Zrotation
										JOINT LeftHandMiddle3
										{
											OFFSET 7.015945 0.000000 0.000000
											CHANNELS 3 Xrotation Yrotation Zrotation
											JOINT LeftHandMiddle4
											{
												OFFSET 7.721573 0.000000 0.000000
												CHANNELS 3 Xrotation Yrotation Zrotation
												End Site
												{
													OFFSET -4.651108 6.158463 0.251582
												}
											}
										}
									}
								}
								JOINT LeftHandIndex1
								{
									OFFSET 21.310577 -0.490082 6.209344
									CHANNELS 3 Xrotation Yrotation Zrotation
									JOINT LeftHandIndex2
									{
										OFFSET 7.536453 0.000000 0.000000
										CHANNELS 3 Xrotation Yrotation Zrotation
										JOINT LeftHandIndex3
										{
											OFFSET 7.512344 0.000000 0.000000
											CHANNELS 3 Xrotation Yrotation Zrotation
											JOINT LeftHandIndex4
											{
												OFFSET 10.212402 0.000000 0.000001
												CHANNELS 3 Xrotation Yrotation Zrotation
												End Site
												{
													OFFSET -5.180801 8.690506 1.388433
												}
											}
										}
									}
								}
							}
						}
					}
				}
				JOINT RightShoulder
				{
					OFFSET -17.399500 24.608795 1.168800
					CHANNELS 3 Xrotation Yrotation Zrotation
					JOINT RightArm
					{
						OFFSET -18.980635 5.765305 1.818600
						CHANNELS 3 Xrotation Yrotation Zrotation
						JOINT RightForeArm
						{
							OFFSET -49.290169 0.000000 0.000000
							CHANNELS 3 Xrotation Yrotation Zrotation
							JOINT RightHand
							{
								OFFSET -31.562012 0.000000 0.000000
								CHANNELS 3 Xrotation Yrotation Zrotation
								JOINT RightHandThumb1
								{
									OFFSET -6.133995 -4.388519 7.076070
									CHANNELS 3 Xrotation Yrotation Zrotation
									JOINT RightHandThumb2
									{
										OFFSET -6.037666 -3.485840 3.485847
										CHANNELS 3 Xrotation Yrotation Zrotation
										JOINT RightHandThumb3
										{
											OFFSET -6.496506 -3.750763 3.750761
											CHANNELS 3 Xrotation Yrotation Zrotation
											JOINT RightHandThumb4
											{
												OFFSET -5.616882 -3.242905 3.242910
												CHANNELS 3 Xrotation Yrotation Zrotation
												End Site
												{
													OFFSET 1.254608 7.132141 0.375429
												}
											}
										}
									}
								}
								JOINT RightHandIndex1
								{
									OFFSET -21.310577 -0.490082 6.209344
									CHANNELS 3 Xrotation Yrotation Zrotation
									JOINT RightHandIndex2
									{
										OFFSET -7.536453 0.000000 0.000000
										CHANNELS 3 Xrotation Yrotation Zrotation
										JOINT RightHandIndex3
										{
											OFFSET -7.512344 0.000000 0.000000
											CHANNELS 3 Xrotation Yrotation Zrotation
											JOINT RightHandIndex4
											{
												OFFSET -10.212402 0.000000 0.000001
												CHANNELS 3 Xrotation Yrotation Zrotation
												End Site
												{
													OFFSET 5.180801 8.690506 1.388433
												}
											}
										}
									}
								}
								JOINT RightHandMiddle1
								{
									OFFSET -23.373947 0.000000 0.000001
									CHANNELS 3 Xrotation Yrotation Zrotation
									JOINT RightHandMiddle2
									{
										OFFSET -6.996567 0.000000 0.000000
										CHANNELS 3 Xrotation Yrotation Zrotation
										JOINT RightHandMiddle3
										{
											OFFSET -7.015945 0.000000 0.000000
											CHANNELS 3 Xrotation Yrotation Zrotation
											JOINT RightHandMiddle4
											{
												OFFSET -7.721573 0.000000 0.000000
												CHANNELS 3 Xrotation Yrotation Zrotation
												End Site
												{
													OFFSET 4.651108 6.158463 0.251582
												}
											}
										}
									}
								}
								JOINT RightHandRing1
								{
									OFFSET -22.726120 -0.094986 -6.500475
									CHANNELS 3 Xrotation Yrotation Zrotation
									JOINT RightHandRing2
									{
										OFFSET -6.408615 0.000000 0.000000
										CHANNELS 3 Xrotation Yrotation Zrotation
										JOINT RightHandRing3
										{
											OFFSET -6.150223 0.000000 0.000000
											CHANNELS 3 Xrotation Yrotation Zrotation
											JOINT RightHandRing4
											{
												OFFSET -6.145386 0.000000 0.000000
												CHANNELS 3 Xrotation Yrotation Zrotation
												End Site
												{
													OFFSET 3.671402 4.923981 -0.202372
												}
											}
										}
									}
								}
								JOINT RightHandPinky1
								{
									OFFSET -18.920792 -0.453171 -11.426712
									CHANNELS 3 Xrotation Yrotation Zrotation
									JOINT RightHandPinky2
									{
										OFFSET -4.919586 0.000000 0.000000
										CHANNELS 3 Xrotation Yrotation Zrotation
										JOINT RightHandPinky3
										{
											OFFSET -5.233047 0.000000 0.000000
											CHANNELS 3 Xrotation Yrotation Zrotation
											JOINT RightHandPinky4
											{
												OFFSET -5.571716 0.000000 0.000000
												CHANNELS 3 Xrotation Yrotation Zrotation
												End Site
												{
													OFFSET 3.459808 4.342407 -0.466164
												}
											}
										}
									}
								}
							}
						}
					}
				}
			}
		}
	}
	JOINT LeftUpLeg
	{
		OFFSET 19.899099 -7.885101 -3.429500
		CHANNELS 3 Xrotation Yrotation Zrotation
		JOINT LeftLeg
		{
			OFFSET 1.745560 -36.997807 10.304700
			CHANNELS 3 Xrotation Yrotation Zrotation
			JOINT LeftFoot
			{
				OFFSET -1.745558 -29.803308 -13.615400
				CHANNELS 3 Xrotation Yrotation Zrotation
				JOINT LeftToeBase
				{
					OFFSET 1.181900 -18.539904 15.226099
					CHANNELS 3 Xrotation Yrotation Zrotation
					JOINT LeftToe_End
					{
						OFFSET -0.863701 1.402801 16.534700
						CHANNELS 3 Xrotation Yrotation Zrotation
						End Site
						{
							OFFSET 0.000000 16.616566 0.000000
						}
					}
				}
			}
		}
	}
	JOINT RightUpLeg
	{
		OFFSET -19.899099 -7.885101 -3.429500
		CHANNELS 3 Xrotation Yrotation Zrotation
		JOINT RightLeg
		{
			OFFSET -1.745560 -36.997807 10.304700
			CHANNELS 3 Xrotation Yrotation Zrotation
			JOINT RightFoot
			{
				OFFSET 1.745558 -29.803308 -13.615400
				CHANNELS 3 Xrotation Yrotation Zrotation
				JOINT RightToeBase
				{
					OFFSET -1.181900 -18.539904 15.226099
					CHANNELS 3 Xrotation Yrotation Zrotation
					JOINT RightToe_End
					{
						OFFSET 0.863701 1.402801 16.534700
						CHANNELS 3 Xrotation Yrotation Zrotation
						End Site
						{
							OFFSET 0.000000 16.616566 0.000000
						}
					}
				}
			}
		}
	}
}
MOTION
Frames: 4
Frame Time: 0.033333
2.426354 118.104187 44.979126 6.519381 -4.641202 -1.859927 10.611758 -5.657546 1.558388 0.322630 -1.551086 1.350340 0.317004 -1.575449 1.411803 -9.327822 0.561741 1.218702 -31.927371 5.974344 3.384322 0.000000 0.000000 -0.000000 2.268273 -13.679598 0.610893 -33.027530 -10.769051 -68.223891 0.000003 -32.764598 -0.000002 21.213815 -14.124498 5.281944 -4.957795 -1.359191 17.116177 13.415092 23.028729 -8.740451 -2.431912 -11.056592 3.945513 0.000002 0.000001 -0.000002 10.829343 9.006276 -81.470332 2.462127 4.772471 -54.558615 2.165581 4.547619 -50.909747 -0.000000 0.000001 0.000001 5.698136 8.255139 -79.637021 2.031616 4.435739 -49.199253 2.128668 4.517441 -50.442675 0.000000 -0.000001 0.000007 1.755545 6.733848 -60.743208 3.078390 5.154417 -61.672264 2.125877 4.515161 -50.407319 0.000001 0.000001 0.000004 -1.081319 2.533252 -34.758215 3.454506 5.339305 -65.783417 1.867915 4.289410 -47.047535 0.000003 -0.000001 0.000001 -0.125714 12.224412 10.565480 -1.767480 -8.746990 65.691086 0.000002 19.301541 0.000021 43.064199 10.234560 1.768432 -23.714890 -4.901053 -7.207709 7.535550 -27.256684 6.815407 -6.165885 -0.987023 -13.713628 -0.000004 -0.000003 -0.000002 -4.739417 2.137137 38.741161 2.418330 -4.084773 61.240357 0.870630 -2.713303 35.574501 0.000001 -0.000001 -0.000002 -3.129250 -2.953751 58.603972 2.293099 -4.013670 59.466940 0.554708 -2.206203 28.223653 -0.000001 0.000000 -0.000008 1.337343 -5.811955 63.759529 2.036707 -3.851332 55.729648 1.166710 -3.085054 41.423028 -0.000003 -0.000002 -0.000002 1.981733 -6.161004 65.866560 2.040955 -3.854203 55.793046 1.602408 -3.517029 48.978795 -0.000000 0.000000 0.000000 -7.003874 13.919888 7.448064 16.284822 -4.958284 -10.677328 -13.265439 8.027272 5.866261 -4.632741 -0.000002 -0.000001 0.000000 -0.000002 0.000000 -55.928044 -12.023396 4.316686 67.800952 -9.749814 -5.559237 -21.265254 -12.003176 -0.844707 0.000007 0.000000 0.000001 -0.000000 0.000000 0.000000 
2.154353 119.110535 46.496613 6.245863 -5.336800 -1.400315 10.795508 -5.769611 1.759906 0.284846 -1.662750 1.394489 0.276449 -1.653214 1.453148 -9.355269 0.665707 1.207524 -31.256086 7.163233 2.547078 0.000000 -0.000000 -0.000000 2.254951 -13.214864 0.402793 -30.049875 -8.695828 -69.242013 0.000005 -36.844062 -0.000015 22.757067 -13.130812 5.839964 -5.487791 -1.623185 18.007270 13.875701 23.442357 -9.251340 -1.666453 -11.991476 3.414045 -0.000000 -0.000001 -0.000001 11.270189 8.604151 -85.923582 2.405993 4.732175 -53.881276 2.193153 4.569809 -51.256776 0.000002 0.000000 -0.000002 6.020641 8.258408 -82.766252 1.988152 4.397972 -48.634847 2.133550 4.521447 -50.504399 -0.000001 0.000002 -0.000002 1.897709 6.864078 -62.575652 3.362426 5.297090 -64.789931 2.336825 4.681099 -53.038048 0.000001 -0.000000 0.000001 -1.076626 2.672063 -35.889933 3.793386 5.478476 -69.377298 2.177071 4.556884 -51.054609 0.000003 0.000007 0.000002 -0.130757 12.503941 10.221770 -2.353129 -7.020810 65.737374 0.000001 15.831118 0.000020 39.836453 10.628459 3.125070 -23.214372 -5.456157 -7.188138 7.410201 -26.200157 6.122585 -6.111099 -1.342243 -13.794417 -0.000000 -0.000001 0.000001 -4.490194 2.141079 37.492319 2.265463 -3.997276 59.071328 0.814565 -2.633250 34.372517 -0.000002 -0.000003 -0.000001 -3.043476 -2.816741 57.134594 2.144109 -3.922194 57.314119 0.554407 -2.205650 28.215791 -0.000000 -0.000002 -0.000001 1.126951 -5.660731 62.264694 1.946797 -3.788636 54.380245 1.102927 -3.011348 40.223708 -0.000006 -0.000004 -0.000005 1.845218 -6.062653 63.866626 1.985289 -3.815861 54.960589 1.517464 -3.441439 47.579142 -0.000000 -0.000000 0.000006 -7.188717 14.075013 7.708579 16.491705 -4.572741 -10.438701 -6.967290 8.566624 4.006528 -8.955816 -0.000005 -0.000001 0.000000 -0.000000 -0.000000 -53.195439 -11.697761 4.411347 66.942240 -9.560370 -5.521360 -22.806929 -11.436861 -0.744864 0.000014 -0.000002 -0.000000 0.000000 -0.000000 -0.000000 
1.897070 120.471474 48.002716 5.894621 -5.965771 -0.923707 10.968449 -5.750205 1.898334 0.238659 -1.727080 1.404823 0.227518 -1.683794 1.459098 -9.350397 0.754910 1.174991 -30.344693 8.360660 1.640517 -0.000002 0.000000 0.000000 2.241424 -12.710091 0.174835 -27.069337 -6.652201 -70.230471 0.000014 -40.000593 0.000005 23.279600 -12.499856 6.476188 -5.941430 -1.846894 18.762053 14.269411 23.792715 -9.690791 -1.016696 -12.801967 2.979139 -0.000001 0.000001 0.000000 11.618971 8.239775 -89.707909 2.358623 4.697365 -53.304839 2.216758 4.588581 -51.552181 0.000001 0.000001 0.000001 6.294915 8.247471 -85.429629 1.951454 4.365475 -48.154480 2.137231 4.524480 -50.551121 -0.000001 0.000001 0.000003 2.021993 6.971312 -64.135961 3.610057 5.406254 -67.444601 2.522257 4.814569 -55.278159 -0.000003 -0.000000 0.000004 -1.070472 2.790109 -36.853320 4.088300 5.580099 -72.437414 2.454538 4.767096 -54.467408 -0.000004 -0.000000 -0.000001 -0.132488 12.830229 9.821194 -2.874032 -4.598253 65.685192 0.000002 12.750181 -0.000002 36.185799 10.725162 4.273715 -22.669439 -6.064820 -7.157556 7.280376 -25.053655 5.364057 -6.051744 -1.730884 -13.882440 -0.000001 0.000000 0.000001 -4.222501 2.135553 36.125495 2.103868 -3.896148 56.723819 0.755190 -2.544362 33.057955 -0.000002 -0.000003 -0.000001 -2.947626 -2.672352 55.526801 1.986206 -3.816503 54.974550 0.554028 -2.204965 28.205968 0.000001 0.000001 -0.000004 0.903468 -5.485625 60.630988 1.851252 -3.718482 52.920890 1.034954 -2.929193 38.912011 -0.000002 -0.000002 -0.000003 1.699765 -5.949506 61.679702 1.925892 -3.773612 54.063215 1.425533 -3.355240 46.028320 0.000003 -0.000001 -0.000001 -7.908468 12.771975 8.405852 16.671621 -2.346154 -9.580927 2.758154 7.868538 -0.083366 -13.599817 0.000010 0.000001 -0.000000 0.000002 -0.000000 -50.034103 -11.227045 4.330459 65.340513 -9.473927 -5.453492 -23.941696 -10.715897 -0.471178 0.000017 0.000000 -0.000002 -0.000000 0.000000 0.000000 
1.672389 122.023224 49.319710 5.476261 -6.561308 -0.541827 11.134019 -5.549330 2.044326 0.194886 -1.683012 1.361411 0.182311 -1.642662 1.412659 -9.314616 0.820584 1.113782 -29.421774 9.280632 0.812317 -0.000000 -0.000000 0.000000 2.227330 -12.210698 -0.056018 -24.482125 -4.720465 -70.833235 -0.000031 -41.263396 -0.000045 21.997630 -12.646591 7.244973 -6.107565 -1.937964 19.037735 14.414853 23.921353 -9.853772 -0.777677 -13.103932 2.822971 0.000002 -0.000002 0.000000 11.741177 8.100744 -91.100797 2.341260 4.684393 -53.092485 2.225454 4.595419 -51.661007 0.000001 0.000001 -0.000004 6.395781 8.240274 -86.410813 1.937996 4.353407 -47.977527 2.138582 4.525625 -50.568330 -0.000001 -0.000002 0.000001 2.068501 7.009952 -64.710968 3.702538 5.443589 -68.422854 2.591876 4.861913 -56.103669 -0.000001 -0.000000 0.000004 -1.067708 2.833564 -37.208244 4.198284 5.613563 -73.565092 2.559896 4.840336 -55.725277 -0.000002 0.000001 0.000003 -0.129483 13.179714 9.392936 -3.472604 -1.967265 65.547420 0.000006 10.491634 0.000008 32.535483 10.410742 5.127580 -22.090901 -6.715659 -7.114454 7.149982 -23.841354 4.553776 -5.989080 -2.145563 -13.975887 -0.000000 -0.000000 -0.000001 -3.943010 2.118632 34.666687 1.937393 -3.781906 54.237754 0.694120 -2.448057 31.655885 -0.000001 0.000002 -0.000001 -2.843335 -2.524614 53.811201 1.823387 -3.697303 52.489973 0.553614 -2.204165 28.195139 0.000002 0.000003 -0.000004 0.673102 -5.287932 58.889987 1.752100 -3.641571 51.376078 0.964544 -2.839875 37.513021 -0.000003 -0.000001 -0.000005 1.548683 -5.822114 59.347725 1.863880 -3.727974 53.115434 1.329272 -3.259804 44.360054 -0.000003 -0.000003 -0.000001 -8.723582 10.709458 8.968257 16.349707 0.371144 -8.248457 13.816087 6.291857 -4.178711 -16.789899 0.000004 0.000001 -0.000001 0.000001 -0.000000 -46.800705 -10.716937 4.201473 63.115026 -9.511811 -5.377536 -24.451659 -9.880801 -0.095217 0.000015 0.000002 -0.000003 -0.000000 0.000000 0.000000 
